<svg width="24" height="30" viewBox="0 0 24 30" fill="none" xmlns="http://www.w3.org/2000/svg">
<path d="M19.89 15.21C20.8209 15.21 21.7137 15.5798 22.3719 16.238C23.0302 16.8963 23.4 17.789 23.4 18.72H11.7V21.06H23.3064C23.1824 21.8556 22.9296 22.6465 22.5576 23.4H11.7V25.74H20.8938C18.8908 27.8062 15.7505 29.2499 11.7 29.2499C4.3524 29.2499 0 24.5021 0 19.89V18.72C0 17.789 0.369802 16.8963 1.02805 16.238C1.68631 15.5798 2.57909 15.21 3.51 15.21H19.89Z" fill="#940000"/>
<path d="M18.0297 5.265C18.1715 6.03855 18.1715 6.83144 18.0297 7.60499H11.7V9.94499H17.0937C16.337 11.1077 15.2249 11.9947 13.9231 12.4739C12.6213 12.9531 11.1995 12.9987 9.86962 12.6041C8.53973 12.2095 7.37298 11.3957 6.54325 10.284C5.71353 9.17226 5.26526 7.8222 5.26526 6.435C5.26526 5.0478 5.71353 3.69773 6.54325 2.58603C7.37298 1.47433 8.53973 0.660518 9.86962 0.265885C11.1995 -0.128748 12.6213 -0.083068 13.9231 0.396116C15.2249 0.8753 16.337 1.76233 17.0937 2.925H11.7V5.265H18.0297Z" fill="#940000"/>
</svg>
